<?xml version="1.0" encoding="utf-8"?>
<!-- Generator: Adobe Illustrator 26.0.3, SVG Export Plug-In . SVG Version: 6.00 Build 0)  -->
<svg version="1.1" id="Layer_1" xmlns="http://www.w3.org/2000/svg" xmlns:xlink="http://www.w3.org/1999/xlink" x="0px" y="0px"
	 viewBox="0 0 256 232" style="enable-background:new 0 0 256 232;" xml:space="preserve">
<style type="text/css">
	.st0{fill:#FFFFFF;}
	.st1{fill:#D8A125;}
	.st2{fill:#8E1A1A;}
</style>
<ellipse class="st0" cx="127.9" cy="116.2" rx="112.1" ry="114"/>
<path class="st1" d="M75.2,102.8c-2.5,0.9-5.5-1.1-6.2-3.5c-0.5-1.8,0-3.4,1.1-4.6c-1-1.2-1.5-2.9-0.9-4.7c-0.1,0-0.3-0.1-0.4-0.1
	c-3.1-1.2-6.2-0.9-9.3-2.1c-0.8-0.3-1.5-0.8-2.1-1.3c-1,2.5-1.9,5.1-2.6,7.7c2.9,0,5.9-0.7,8.7-1c2.7-0.3,5,2.5,5,5
	c0,1.8-0.9,3.2-2.3,4.1c1.4,0.6,2.6,1.4,3.5,2.3c1.3-0.4,2.7-0.7,4.1-0.9c1.8-0.3,3.5-0.1,4.2-1c0.4-0.5,0.7-1.2,1-1.9
	C77.9,101.6,76.6,102.3,75.2,102.8z"/>
<path class="st1" d="M127.8,38c-27.9,0-52.2,15.6-65.5,38.7c4.8-0.1,11,0.4,14.6,3.8c0.7,0.6,1.2,1.4,1.7,2.1
	c1.4-0.2,2.8,0.2,3.9,1.4c1,1.1,2,2.3,3,3.5c0.1-2.3,1.7-5.3,2.5-7.3c1.1-2.8,2.3-5.5,3.5-8.2c-0.1-0.9,0-1.8,0.4-2.7
	c0.2-0.6,0.5-1.1,0.7-1.7c0.3-0.8,0.8-1.5,1.3-2c0.3-1.2,0.4-2.4,0.6-3.4c0.1-0.6,0.3-1.1,0.5-1.7c-0.3-1.3-0.1-2.6,0.5-3.8
	c0.1-0.1,0.1-0.2,0.2-0.3c0-0.1,0-0.2,0-0.4c-0.1-2.8,1.5-10.9,4.2-11c1.1,0,4.1,5.4,5,6.1c1.2,0.2,1.3,2.4,2,3.4
	c0.5,0.8,0.8,2.2,0.7,3.3c3.2,4.6,6.7,10,7.2,15.7c1.6,0.7,2.3,2.2,2.3,3.8c0.1,0.1,0.2,0.2,0.3,0.3c1.5,2,2.3,3.8,3.4,6.1
	c1,2.2,2.6,4,3.8,6.1c0.3,0.6,0.5,1.1,0.6,1.7c1,0.3,2,0.7,2.9,1.2c0-0.5,0.1-1,0.3-1.5c-1.8-3.4-0.9-7.8-0.6-11.7
	c-1-1-1.4-2.4-1.3-4c0.3-2.2,2.5-4.6,4.9-4.3l4.2,0.4c2.7,0.3,5,2.1,5,5c0,0.6-0.2,1.3-0.4,1.9c0.9-1.3,1.8-2.5,2.8-3.7
	c1-2.9,2-5.9,3.7-8.6c1.4-2.2,2.6-4.7,4.2-6.9c1.1-1.5,2.5-2.6,3.7-3.9c-0.2-2.6,2.4-7.6,5.8-7.6c3.3,0,3.9,4.7,3.9,7.2
	c0.7,1.1,0.9,2.5,0.1,3.9c0.9,0.8,1.5,2,1.4,3.4c-0.1,4.2,0.8,8.2,1.8,12.2c0.2,0.7,0.6,3.8,0.9,6.2c1.2,1.6,2.4,3.3,3.1,4.8
	c0.1,0.2,0.2,0.5,0.3,0.7c0.4-0.2,0.8-0.4,1.2-0.5c5.7-5.7,11.8-10.2,20.9-7.8C180.7,54,156,38,127.8,38z"/>
<path class="st1" d="M203.5,109.5c-0.7,0.2-1.5,0.2-2.4,0c-0.8-0.2-1.7-0.3-2.5-0.4c0.1,2.8-0.7,5.6-2.5,7.2
	c-4.8,4.3-12.4-0.7-17.3,2.7c-0.1,0.1-0.3,0.2-0.4,0.3c0.5,3,1.8,5.9,2,9.1c0.1,1.5,0.1,2.9,0,4.4c0.7,2.9,1.1,5.8,1.7,8.7
	c0.9,4.2,2.2,8.2,2.8,12.4c0.5,2.2,1.1,4.3,2,6.6c1.2,3.2-1.9,6.2-4.8,6.3c-6.9,0.2-14.1-1-21.1-1.3c-1,0-1.8-0.3-2.5-0.7
	c-0.7,0.1-1.5,0.1-2.2,0c-1.2-0.3-2.4-1.3-3-2.3c-0.2-0.4-0.4-0.8-0.5-1.3c-1.6-2-2.1-4.9-1.6-7.3c-0.8-0.9-1.3-2-1.2-3.2
	c0.5-4.4,0-10.8-2.2-15c-1,1.4-2,2.7-3,4.1c-3.2,4.4-6.3,9.2-9.8,13.4c0,0.3,0,0.5-0.1,0.8c0,0.2,0,0.4-0.1,0.6
	c-0.1,0.7-0.3,1.5-0.7,2.1c-0.3,0.3-0.5,0.7-0.8,1c-0.5,0.5-1.2,0.9-1.8,1.2c-0.8,5.3-4.4,11-6.2,7.2c-1.4-0.5-5.7-9.9-5.9-11.4
	c-0.1-0.4-0.1-0.8-0.1-1.2c-1.5-0.8-2.7-2.3-2.7-4.3v-0.8c0-0.1,0-0.3,0-0.4c-0.2-0.4-0.3-0.7-0.5-1.1c-0.1-0.4-0.2-0.8-0.3-1.2
	c-0.8-1.1-1.5-2-1.8-2.6c-1.2-2.3-2.4-4.8-3.5-7.3c-0.2-0.4-0.7-1-1.1-1.7c-0.3,0.5-0.8,0.9-1.2,1.4c-0.1,0.3-0.2,0.6-0.4,1
	c-0.7,1.5-1.5,3-2.2,4.5c-0.1,1-0.2,2-0.5,3c-0.2,1-0.7,1.8-1.1,2.6c0.4,1.7-0.2,3.6-1.4,4.9c0,1.3,0.1,2.6-0.1,3.9
	c-0.4,2-1.2,3.8-1.8,5.7c-1,3.5-4.5,4.3-7.1,3c-0.9,0.4-1.9,0.5-3,0.3c-0.7,0.3-1.4,0.5-2.2,0.6c-3.4,0.2-6.6,0-9.9-0.5
	c-0.5-0.1-0.9-0.2-1.2-0.4c-0.9,0.2-1.9,0.3-2.8,0.6c-5.2,1.3-7.9-5.1-5.1-8.2c-0.2-1.1-0.1-2.4,0.5-3.4c0.1-0.4,0.2-0.8,0.3-1.3
	c0.2-1,0.3-2,0.5-2.9c0.2-1.5,0.6-3.2,1.6-4.5c0.1-0.7,0.3-1.4,0.6-2.1c0.9-1.6,1-3.2,1.3-4.9c0.3-2.1,1.1-4.2,1.7-6.3
	c0.1-0.5,0.4-1,0.7-1.4c0.1-0.7,0.1-1.5,0.2-2.2c0.3-2.2,2-8.2,0-9.8c-1.3-1-5.1-1-6.7-1.5c-0.4-0.1-0.7-0.3-1.1-0.4
	c-0.1,0-0.1,0.1-0.2,0.1c-0.1,0.1-0.2,0.2-0.4,0.2c-2.2,1.9-5.2,1.4-6.9-0.4c-1.1-0.9-1.8-2.3-1.3-4.1c0-0.2,0.1-0.3,0.1-0.5
	c-0.2,0-0.3-0.1-0.3-0.1c-1.2-0.4-2.2-1.1-2.8-2.1c-1.7-0.2-4.5,0-5.4-0.1c0,0,0,0,0,0c-0.3,2.8-0.4,5.6-0.4,8.5
	c0,43.6,34.1,79,76.1,79s76.1-35.4,76.1-79C203.9,114.5,203.8,112,203.5,109.5z"/>
<path class="st1" d="M86.3,135.5c-0.2,1.4-0.3,2.9-0.5,4.3c-0.4,3.1-0.4,7-3.5,8.8c-0.3,0.2-0.6,0.3-0.9,0.4
	c-0.1,0.3-0.3,0.7-0.5,0.9c0,0.1,0,0.2-0.1,0.3c-0.2,0.8-0.3,1.7-0.4,2.5c0,0.3-0.1,0.5-0.1,0.8c3.7-0.2,7.4-0.1,11,0.6
	c0.3-2.8,0.9-5.4,1.8-8.1c0.1-3.5,2.2-7.7,3.6-10.9c0.4-1,1.1-1.7,1.9-2.1c0.2-0.3,0.3-0.6,0.5-0.9c0.1-0.5,0.3-1.1,0.7-1.6
	c1.3-2.1,3.1-4.2,5.3-5.6c-0.2,0.1-0.3,0.2-0.5,0.2c-2.9,1.1-6.1,1-9.2,1.2c-1.2,0.1-2.3-0.3-3-0.9c0,0-0.1,0-0.1,0
	c-0.6,0.9-1.2,1.8-1.7,2.8c-0.8,1.4-2.1,2.2-3.5,2.3c0.4,1,0.6,2.1,0.3,3.3C87,134.4,86.7,135,86.3,135.5z"/>
<g transform="translate(0.000000,232.000000) scale(0.100000,-0.100000)">
	<path d="M1200,2311c-8-4-49-11-91-15c-360-31-769-372-893-746c-91-275-86-542,16-825c73-201,258-425,448-542c83-50,192-103,213-103
		c18,0-5,15-43,30c-19,8-71,34-115,58C503,298,320,521,237,775c-54,164-62,219-61,395c1,184,20,279,85,435c120,290,431,567,724,648
		c130,36,155,39,307,39c186-1,310-30,483-112c227-109,389-278,511-535c71-150,92-234,100-405c14-287-48-507-210-745
		c-169-249-390-395-690-456c-147-29-334-23-475,15c-52,15-95,25-97,23s33-16,79-32c73-25,99-29,240-33c215-6,352,19,528,96
		c54,24,178,101,236,148c45,37,170,190,220,269c94,149,165,340,181,485c12,106,8,335-8,415c-17,87-111,295-180,399
		c-67,103-217,256-300,309c-116,73-287,139-425,164C1388,2315,1221,2323,1200,2311z"/>
	<path d="M1070,2209c-95-20-113-27-226-80c-194-92-407-304-508-506c-42-85-44-83,97-83h122l28,50c65,116,252,282,382,339
		c111,49,277,76,385,61c141-18,185-31,300-88c143-71,240-157,313-281l48-81h129h130l-10,24c-18,48-65,133-119,215
		c-100,151-252,282-410,353c-36,16-75,34-86,39C1525,2225,1232,2244,1070,2209z M1388,2194c13-4,22-14,22-26c0-17-5-19-25-14
		c-14,4-25,4-25,0c0-3,11-15,25-26c59-46,12-134-52-98c-33,19-31,35,5,35c34,0,35,22,2,38c-32,16-40,65-14,84
		C1346,2201,1355,2202,1388,2194z M1264,2173c3-10,5-34,4-53c0-20,4-45,10-57c21-38-8-40-39-2l-28,34l-1-32c0-25-4-33-18-33
		s-20,14-29,72c-6,40-9,76-7,80c3,5,27,8,54,8C1248,2190,1260,2186,1264,2173z M1122,2165c0-5-9-14-21-20c-27-12-29-39-2-30
		c30,9,37-15,10-36c-20-15-21-19-8-24c9-3,22-5,30-3s14-4,14-12c0-17-46-36-68-27c-14,5-63,135-54,143
		C1044,2177,1120,2184,1122,2165z M996,2133c6-10,17-42,24-71c15-64,5-82-31-53l-25,20l4-30c3-23,1-29-14-29c-17,0-40,41-69,122
		c-10,25,29,32,61,11l27-17l-6,25C957,2150,977,2164,996,2133z M1617,2142c6-4,13-14,15-22c2-11-7-15-36-15c-35,0-40-3-47-29
		c-9-34,3-56,32-56c11,0,19-7,19-15c0-19-60-21-78-3c-17,17-15,83,3,118c12,24,22,30,48,30C1590,2150,1610,2146,1617,2142z
		 M1705,2100c3-5-4-33-16-61l-22-51l22-17c34-26,9-42-35-22c-18,8-34,19-34,23s12,37,26,73C1670,2105,1690,2124,1705,2100z
		 M871,2057c4-14,10-49,14-76c8-58-3-66-43-29l-23,23l11-29c12-33,7-56-13-56c-17,0-119,104-111,113c12,12,37,8,57-10
		c19-18,19-17,13,14c-10,45,0,58,30,38c23-15,24-14,24,8C830,2098,859,2101,871,2057z M1815,2041c3-5-6-26-20-47c-25-36-32-64-17-64
		c4,0,20,20,35,45c30,47,44,55,53,30c8-19-45-101-73-114c-17-8-27-6-47,10c-33,26-32,32,4,97C1779,2047,1801,2062,1815,2041z
		 M1943,1955c32-31,37-74,8-82c-11-3-24-18-30-34c-7-20-17-29-32-29c-24,0-69,36-69,54c0,19,70,116,83,116
		C1910,1980,1928,1969,1943,1955z M733,1927c31-35,35-72,10-99c-31-35-92-19-118,32c-22,42-19,66,12,89C669,1975,696,1969,733,1927z
		"/>
	<path d="M1200,2140c0-13,5-20,13-17c6,2,12,10,12,17s-6,15-12,18C1205,2160,1200,2153,1200,2140z"/>
	<path d="M1905,1921c-6-11,9-23,19-14c9,9,7,23-3,23C1915,1930,1909,1926,1905,1921z"/>
	<path d="M1865,1870c-8-13,4-32,16-25c12,8,12,35,0,35C1875,1880,1868,1876,1865,1870z"/>
	<path d="M650,1911c0-29,43-76,63-68c23,9,21,20-9,56C675,1934,650,1939,650,1911z"/>
	<path d="M1080,1926c-103-31-201-84-289-158c-73-61-181-190-181-215c0-9,19-13,64-13c36,0,67-4,71-9c7-13,126-103,129-99
		c2,2,13,41,26,88c12,47,33,123,46,170s28,106,35,133c6,26,15,47,19,47c7,0,61-103,210-400c67-133,74-143,81-117c7,27-4,169-17,215
		c-6,21-4,22,46,22c46,0,51-2,45-17c-4-10-10-43-12-73l-4-55l73,113c40,61,96,148,123,192c28,44,53,80,57,80s12-17,17-37
		c11-42,53-218,71-300c7-29,14-53,17-53c2,0,30,23,62,50c57,49,59,50,124,50h67l-25,49c-52,103-177,220-301,282
		C1477,1949,1237,1973,1080,1926z M1472,1903c7-5,34-16,61-23c26-7,47-17,47-22c0-10-159-268-165-268c-3,0-2,7,2,16c5,14-5,16-90,13
		c-52-2-98-7-102-11s3-21,15-38c16-23,24-50,27-98l4-67l-36,65c-20,36-50,92-66,125c-17,33-45,89-64,123c-18,35-42,85-53,112l-20,48
		l41,15c23,9,51,18,62,21C1170,1923,1458,1914,1472,1903z M944,1778c-8-35-21-85-29-113c-8-27-22-79-30-115c-9-36-20-69-24-73
		c-5-5-35,12-67,37c-49,38-66,46-101,46c-24,0-43,3-43,6c0,15,64,95,117,145c59,58,159,129,179,129C954,1840,953,1823,944,1778z
		 M1697,1799c70-40,164-131,192-186c11-23,21-45,21-48s-21-5-46-5c-38,0-53-6-93-40c-26-22-50-40-53-40s-8,12-11,28
		c-18,84-31,143-44,192c-22,88-31,130-25,130C1640,1830,1667,1816,1697,1799z"/>
	<path d="M994,1763c-3-16-27-107-51-203c-25-96-51-200-58-230c-6-30-19-80-28-110s-23-82-31-115c-32-127-68-262-82-303
		c-28-83-30-82,104-82h118l26,88c15,48,29,101,33,117c15,73,48,166,55,158c5-4,47-84,95-178c48-93,88-171,89-172c3-3,93,130,170,250
		l37,57l-25,31c-15,18-26,43-26,60c0,26-3,29-20,24c-23-7-23-8-9,34c6,17,17,31,25,31c14,0,44,60,44,89c0,9-9,27-20,41
		c-28,36-26,91,5,124c26,28,59,33,99,15c19-9,29-9,40,0c11,10,16,9,25-6c8-15,2-27-37-66l-47-48l37-32c68-59,77-115,28-167
		c-29-31-33-32-86-27l-55,6l3-32c3-33,38-54,38-23c0,9,5,16,10,16c16,0,24-31,13-49c-6-10-7-34-3-61c4-25,16-94,26-155
		c10-60,22-116,27-122c7-9,47-13,138-13c97,0,129,3,129,13c0,6-7,41-16,77s-24,103-34,150c-44,200-69,306-74,320c-3,8-14,56-25,105
		c-44,209-73,331-82,354c-11,26-3,36-167-219c-19-30-46-71-59-91c-23-35-24-42-22-207c1-152-1-175-18-204c-24-41-64-62-103-53
		c-32,7-60,38-60,66c0,9-9,28-21,43c-17,22-18,27-6,32c9,3,24,1,34-4c12-7,25-7,37,0c24,14,42-4,21-22c-22-18-20-67,4-75
		c45-14,51,0,51,124v116l-137,277c-76,153-141,278-145,278S998,1778,994,1763z M1122,1488c-2-13,72-247,105-335c4-10-7-13-41-13
		c-43,0-46,2-46,26c0,39-16,60-60,78c-22,9-42,16-45,16c-11,0-26-86-20-119c7-45-18-74-64-74c-68,0-103,61-81,141c12,46,35,69,87,87
		c31,11,41,21,55,58c9,24,18,66,20,93c4,57,11,65,58,62C1116,1506,1124,1501,1122,1488z"/>
	<path d="M1066,1390c-2-8-9-30-15-49s-11-37-11-40c0-8,70-34,76-29c5,6-23,98-35,118C1072,1403,1071,1403,1066,1390z"/>
	<path d="M944,1245c-53-37-53-117,1-131c37-9,61,2,45,21c-7,8-16,13-20,10c-17-11-19,14-5,55C988,1265,984,1273,944,1245z"/>
	<path class="st2" d="M829,1284l-24-99l-60-3c-78-4-105,3-105,28c0,15,9,22,30,26c17,4,30,13,30,20c0,11-21,14-96,14h-95l3,28
		c3,25,7,27,51,30c32,2,47,7,47,17c0,11-19,15-77,17c-72,3-78,5-81,25c-3,19,2,22,34,25c21,2,39,9,42,16c3,9-22,12-102,12
		c-111,0-127,7-112,45c4,13,36,15,200,15h194l53-42c28-24,61-50,72-59C853,1383,853,1382,829,1284z"/>
	<path class="st2" d="M2245,1485v-50l-96,4c-105,3-139-3-139-25c0-10,14-14,54-14c60,0,68-5,59-38c-5-20-12-22-89-22
		c-68,0-84-3-84-15s13-15,55-15c52,0,55-1,55-25v-25h-105c-87,0-105-3-105-15c0-11,11-15,35-15c37,0,57-22,37-42
		c-11-11-161-18-168-7c-6,10-46,211-42,213c2,1,27,23,55,49l53,47l212-2L2245,1485z"/>
	<path d="M1492,1463c-22-9-34-41-22-63c15-27,25-25,50,10c18,25,19,34,10,45C1517,1471,1513,1472,1492,1463z"/>
	<path d="M2289,1445c-4-29-6-30-61-33c-52-3-58-5-58-25c0-49-11-67-40-67h-29l-4-142c-6-213-41-338-138-488c-58-91-169-200-256-253
		c-33-20-63-37-67-37c-3,0-29-11-58-24c-120-55-317-70-469-36c-294,65-544,311-617,609c-15,63-24,324-12,361c3,10-3,16-21,18
		c-27,3-39,23-39,70c0,21-4,22-65,22c-59,0-67,2-74,22c-15,41-46-162-45-297c1-363,175-689,472-888c178-120,360-172,587-172
		c298,2,559,117,744,329c59,67,145,195,184,272c72,145,113,357,103,539C2319,1361,2296,1496,2289,1445z M878,380c35-22,36-48,1-29
		c-11,6-28,8-36,5c-14-6-13-10,7-31c26-28,22-42-8-26c-15,8-23,7-32-4c-7-9-11-17-9-18c2-2,17-11,33-21c44-28,17-42-30-15
		c-21,13-41,24-42,25c-12,8,60,134,75,134C842,400,860,391,878,380z M1763,373c8-10,19-30,22-46c12-46-1-71-49-95
		c-52-25-48-28-85,66l-20,51l27,20C1691,394,1742,396,1763,373z M981,294c13-51,25-56,34-14c4,17,13,30,22,30c11,0,14-7,9-23
		c-3-12-10-46-16-75c-9-41-16-52-31-52c-14,0-22,11-30,45c-15,57-27,65-42,26c-7-19-18-31-30-31c-21,0-19,10,19,96
		C944,360,965,360,981,294z M1618,293c11-27,23-60,27-74c10-39-16-43-56-9c-19,16-37,29-42,30c-4,0-4-18-1-40c5-32,4-40-9-40
		c-16,0-31,36-43,102c-8,48,13,59,55,29c16-12,31-21,33-21s2,16,0,35C1576,355,1594,348,1618,293z M1173,281c16-16-3-31-29-25
		c-14,4-31,1-39-6c-21-17-20-76,2-84c25-10,37,8,22,32c-17,26-7,36,26,28c27-7,32-27,15-71c-9-23-15-26-46-23c-72,6-93,78-42,143
		c17,22,26,26,52,21C1151,292,1168,286,1173,281z M1427,278c6-7,23-37,38-66c22-40,26-55,17-64s-15-9-24,0c-20,20-76,15-88-8
		c-28-52-39-5-19,78c14,55,25,72,49,72C1410,290,1422,284,1427,278z M1242,233c-5-64,4-83,39-83c19,0,29-5,29-15c0-11-12-15-49-15
		c-28,0-52,4-55,8c-3,5-2,41,1,81c5,58,9,71,22,69C1241,276,1244,265,1242,233z"/>
	<path d="M1698,353c-22-5-23-25-3-63c17-33,36-38,55-15C1777,307,1739,362,1698,353z"/>
	<path d="M1397,233c-12-11-8-31,8-36c8-4,16-3,19,1C1430,208,1404,241,1397,233z"/>
	<path d="M1470,1245c-28-58-24-79,16-83s64,19,64,62c0,32-24,66-47,66C1497,1290,1482,1270,1470,1245z"/>
	<path d="M503,1224c-3-9-3-58,0-109c25-427,367-755,785-755c178,0,356,68,501,192c124,105,187,203,236,369c26,86,50,268,40,299
		c-5,16-15,20-50,20h-44l-3-42l-3-43l-90-3c-49-2-93-6-98-11c-7-7,33-213,77-395c8-33,12-64,10-68c-7-11-315-2-324,9
		c-7,9-35,154-46,241c-4,34-11,52-20,52c-8,0-14-3-14-7c0-5-24-45-53-89c-28-45-63-100-77-124c-14-23-35-54-48-68
		c-27-33-20-43-119,163c-40,82-77,151-82,153c-4,1-13-23-18-55c-15-80-52-223-65-251c-12-22-15-23-148-21c-76,0-143,5-150,9
		c-15,10-19-8,54,274c25,99,43,183,39,187c-5,5-46,9-93,11l-85,3l-3,38l-3,37h-50C523,1240,508,1236,503,1224z M602,1178l3-43l88-3
		c66-2,86-6,80-15c-4-7-16-43-25-82c-39-162-80-305-88-305c-10,0-63,96-82,150c-35,96-58,281-42,324c4,9,18,16,34,16
		C597,1220,599,1217,602,1178z M2035,1168c-2-24-7-74-10-113c-7-100-62-252-116-323l-17-23l-11,33c-16,50-55,226-77,351l-7,37h92
		c88,0,91,1,97,25c3,14,4,32,0,40c-4,11,2,15,24,15C2039,1210,2040,1209,2035,1168z M1175,783c45-89,83-153,91-153s14,4,14,8
		c0,5,14,31,32,58c17,27,41,65,53,84s39,62,60,95l38,59l13-49c7-28,18-89,25-137c10-74,15-87,33-92c11-3,85-6,164-6
		c78,0,142-4,142-8c0-13-88-93-140-129c-53-36-143-79-185-89c-16-4-36-12-44-18c-9-7-72-11-175-11c-183,0-226,9-358,77
		c-72,37-218,157-218,179c0,5,64,9,144,9h143l21,73c12,39,29,105,38,145c9,41,20,70,24,65C1094,939,1132,866,1175,783z"/>
</g>
</svg>
